<svg xmlns="http://www.w3.org/2000/svg" width="27" height="27">
    <path fill="#FF0F53" fill-rule="evenodd" d="M13.499 27C6.059 27 0 20.94 0 13.499c0-7.44 6.059-13.5 13.499-13.5 7.441 0 13.5 6.06 13.5 13.5C26.999 20.94 20.94 27 13.499 27zm0-24.489C7.44 2.511 2.511 7.44 2.511 13.499c0 6.059 4.929 10.989 10.988 10.989 6.06 0 10.989-4.93 10.989-10.989 0-6.059-4.929-10.988-10.989-10.988zm5.399 16.299a2.01 2.01 0 0 1-1.414.577 2.01 2.01 0 0 1-1.414-.577l-2.546-2.502-2.473 2.571a2.023 2.023 0 0 1-2.827.079 1.94 1.94 0 0 1-.079-2.778l2.55-2.651-2.625-2.58a1.94 1.94 0 0 1 0-2.779 2.022 2.022 0 0 1 2.828 0l2.545 2.501L15.916 8.1a2.005 2.005 0 0 1 1.397-.615 2.016 2.016 0 0 1 1.43.536 1.94 1.94 0 0 1 .08 2.778l-2.551 2.652 2.626 2.58a1.94 1.94 0 0 1 0 2.779z"/>
</svg>
