<svg xmlns="http://www.w3.org/2000/svg" width="27" height="27">
    <path fill="#00C260" fill-rule="evenodd" d="M13.499 26.999C6.059 26.999 0 20.94 0 13.499 0 6.059 6.059 0 13.499 0c7.441 0 13.5 6.059 13.5 13.499 0 7.441-6.059 13.5-13.5 13.5zm0-24.488C7.44 2.511 2.511 7.44 2.511 13.499c0 6.06 4.929 10.989 10.988 10.989 6.06 0 10.989-4.929 10.989-10.989 0-6.059-4.929-10.988-10.989-10.988zm-1.193 15.792a1.345 1.345 0 0 1-1.914 0l-3.171-3.171a1.343 1.343 0 0 1 0-1.915l.69-.691a1.345 1.345 0 0 1 1.915 0l1.162 1.162c.22.189.533.189.722 0l5.4-5.4a1.345 1.345 0 0 1 1.915 0l.691.69a1.346 1.346 0 0 1 0 1.916l-7.41 7.409z"/>
</svg>
