<svg xmlns="http://www.w3.org/2000/svg" width="68" height="68">
    <path fill="#FFF" fill-rule="evenodd" d="M65.893 36.024h-5.195c-.4 4.977-2.174 9.868-5.208 13.842-2.181 2.857-4.823 5.309-7.939 7.126-3.19 1.86-6.696 2.994-10.352 3.451-.343.043-.686.044-1.029.072v5.378A2.126 2.126 0 0 1 34.063 68a2.126 2.126 0 0 1-2.106-2.107V63.17v-2.624c-5.45-.44-10.708-2.582-14.966-6.081-5.541-4.554-8.973-11.315-9.562-18.441H2.106A2.127 2.127 0 0 1 0 33.917c0-1.148.958-2.107 2.106-2.107H7.46c.466-5.784 2.81-11.355 6.694-15.715 4.543-5.098 11.015-8.237 17.803-8.784V2.106C31.957.958 32.915 0 34.063 0c1.149 0 2.107.958 2.107 2.106V7.3c6.118.495 11.998 3.092 16.438 7.376 4.687 4.522 7.539 10.676 8.067 17.134h5.218c1.149 0 2.107.959 2.107 2.107a2.127 2.127 0 0 1-2.107 2.107zm-9.516-5.172a24.445 24.445 0 0 0-1.435-5.402c-.043-.106-.085-.212-.129-.317l-.004-.01a24.879 24.879 0 0 0-.918-1.877 24.847 24.847 0 0 0-1.92-2.995l-.082-.108a24.403 24.403 0 0 0-3.43-3.543c-.15-.127-.302-.253-.455-.376l-.143-.114a24.646 24.646 0 0 0-4.821-2.858l-.191-.084c-.354-.144-.71-.284-1.07-.411a24.977 24.977 0 0 0-4.72-1.16c-.296-.036-.593-.055-.889-.08v4.547a2.127 2.127 0 0 1-2.107 2.107 2.127 2.127 0 0 1-2.106-2.107v-2.723-1.825c-.32.027-.641.049-.961.088a24.42 24.42 0 0 0-5.71 1.56l-.017.008a24.052 24.052 0 0 0-1.876.918 24.426 24.426 0 0 0-2.995 1.919l-.105.079-.016.013a25.044 25.044 0 0 0-3.907 3.876l-.114.143a24.78 24.78 0 0 0-2.563 4.188c-.101.209-.2.42-.294.632l-.082.187a24.07 24.07 0 0 0-.414 1.075 24.907 24.907 0 0 0-1.159 4.717 24.42 24.42 0 0 0-.089.891h4.409c1.148 0 2.107.959 2.107 2.107a2.127 2.127 0 0 1-2.107 2.107H11.655c.027.322.057.644.096.965a24.43 24.43 0 0 0 1.434 5.394l.123.306.01.022a24.204 24.204 0 0 0 .918 1.877 24.847 24.847 0 0 0 1.92 2.995l.091.12a24.585 24.585 0 0 0 3.876 3.907l.142.113c.649.49 1.318.953 2.012 1.377a24.636 24.636 0 0 0 2.81 1.481l.189.084c.354.145.711.284 1.072.412 1.531.543 3.111.924 4.718 1.16.296.035.594.055.891.079v-4.38c0-1.149.958-2.107 2.106-2.107 1.149 0 2.107.958 2.107 2.107v4.382c.321-.027.643-.049.964-.088a24.45 24.45 0 0 0 5.703-1.559l.02-.009a24.268 24.268 0 0 0 1.877-.918 24.541 24.541 0 0 0 2.995-1.919l.11-.083.011-.009a24.83 24.83 0 0 0 4.02-4.019 24.646 24.646 0 0 0 2.858-4.82l.083-.189c.145-.354.284-.712.412-1.073a24.862 24.862 0 0 0 1.16-4.718c.036-.296.057-.594.083-.89h-4.531a2.127 2.127 0 0 1-2.106-2.107c0-1.148.958-2.107 2.106-2.107h4.532c-.028-.319-.051-.639-.09-.958zM34.169 44.134c-3.946.026-7.802-2.316-9.389-5.974-.879-2.025-1.147-4.175-.712-6.35.379-1.897 1.368-3.716 2.736-5.084 2.819-2.819 7.278-3.865 11-2.305 1.957.821 3.591 2.096 4.784 3.867 1.11 1.649 1.681 3.646 1.693 5.629-.016 2.666-1.065 5.298-2.958 7.19-1.883 1.884-4.482 3.01-7.154 3.027zm4.714-6.612c.068-.088.114-.152 0 0zm-8.428 1.213c.09.069.158.118 0 0zm-1.203-8.434c-.073.095-.13.173 0 0zm8.419-1.202c-.089-.069-.157-.118 0 0zm1.927 2.455c-.032-.068-.064-.137-.098-.204a8.097 8.097 0 0 0-.663-1.097l-.001-.002a8.173 8.173 0 0 0-1.069-1.076l-.019-.015-.101-.074a8.161 8.161 0 0 0-1.105-.65 8.905 8.905 0 0 0-.229-.1 8.3 8.3 0 0 0-.572-.187c-.3-.084-.606-.136-.912-.188a8.563 8.563 0 0 0-1.519 0 7.72 7.72 0 0 0-1.021.216 9.54 9.54 0 0 0-.589.205c-.068.032-.137.064-.204.098-.381.194-.75.412-1.097.663l-.002.002c-.062.052-.125.103-.186.157a7.95 7.95 0 0 0-.903.927c-.025.035-.051.069-.075.104a8.168 8.168 0 0 0-.651 1.105c-.023.049-.058.13-.087.197l-.012.032a7.228 7.228 0 0 0-.187.573c-.085.3-.137.606-.188.912a8.458 8.458 0 0 0-.001 1.518c.056.344.115.688.217 1.021.061.199.129.395.205.589.032.068.063.137.097.205.195.38.412.75.663 1.096l.002.002c.052.063.104.126.158.187a7.908 7.908 0 0 0 .911.889l.021.017c.033.024.065.049.099.072a8.1 8.1 0 0 0 1.105.65c.048.023.129.058.196.087l.033.013a8.3 8.3 0 0 0 .572.187c.3.084.606.136.912.188a8.551 8.551 0 0 0 1.518 0 7.687 7.687 0 0 0 1.021-.216c.199-.061.396-.13.59-.206a8.19 8.19 0 0 0 1.3-.76l.001-.001c.063-.052.127-.104.188-.158a8.152 8.152 0 0 0 .89-.912l.017-.022.071-.097c.243-.352.465-.719.65-1.105.024-.049.059-.132.088-.199l.012-.03c.069-.189.133-.379.187-.573.085-.302.138-.609.189-.918.023-.252.047-.505.048-.759-.001-.251-.025-.499-.047-.748a7.641 7.641 0 0 0-.218-1.026 8.203 8.203 0 0 0-.205-.589z"/>
</svg>
