<svg xmlns="http://www.w3.org/2000/svg" width="380" height="342">
    <path fill="#D7D7D7" fill-rule="evenodd" d="M379.134 170.926l-.271 4.026-179.484-18.888L310.308 16.468l3.048 2.63c46.398 35.26 71.702 93.577 65.778 151.828zm-163.996-21.492l129.054 13.693c2.905-43.285-15.562-86.383-49.394-113.723l-79.66 100.03zm96.607-121.343l-12.529 15.542c35.943 28.897 55.452 74.491 52.344 120.795l19.819 1.934c4.17-53.11-18.531-105.186-59.634-138.271zM297.94 89.656c-3.733 1.57-8.265.053-10.001-4.107-1.562-3.745-.048-8.295 4.1-10.04 4.147-1.744 8.853.188 10.001 4.107 1.562 3.745-.367 8.469-4.1 10.04zm.955-8.228a4.02 4.02 0 0 0-5.294-2.174 4.05 4.05 0 0 0-2.17 5.315 4.02 4.02 0 0 0 5.294 2.174 4.05 4.05 0 0 0 2.17-5.315zm7.016 25.188c10.339 4.246 15.285 16.1 11.047 26.479-4.238 10.377-16.054 15.349-26.393 11.103-10.338-4.246-15.284-16.101-11.046-26.478 4.237-10.379 16.054-15.35 26.392-11.104zm-53.746 34.578c-5.392 2.268-11.169 1.275-15.393-1.839.164-5.449 3.511-10.281 8.902-12.549 5.392-2.268 11.169-1.275 15.393 1.839-.164 5.449-3.511 10.281-8.902 12.549zm86.769 43.22l-.27 4.026c-1.496 16.28-5.586 32.185-11.856 47.539-16.947 42.345-49.576 75.148-91.464 92.769-41.887 17.622-88.229 17.554-129.998.401-86.481-35.516-128.141-135.374-92.692-222.184C48.517 19.979 148.051-21.894 234.531 13.621c13.946 5.382 26.927 13.127 39.011 22.227l3.048 2.63-101.921 128.471 164.265 17.465zM265.248 39.337c-10.561-7.784-22.018-14.214-33.784-19.046-41.181-16.912-85.826-15.248-123.981.804-38.154 16.051-70.648 46.84-87.529 88.178-33.586 83.093 6.164 178.374 88.527 212.199 40.178 16.844 84.34 16.362 124.154-.387 39.813-16.75 70.716-47.848 87.114-88.005 5.546-13.583 9.501-27.474 11.344-42.922l-20.822-2c-1.641 12.428-4.872 24.548-9.695 36.359-14.228 34.842-41.677 62.53-76.514 77.186-34.837 14.656-73.155 15.125-108.453.63C43.247 272.615 8.531 189.4 38.192 116.763c14.227-34.843 41.677-62.531 76.514-77.187 34.837-14.656 73.155-15.125 108.453-.629 10.589 4.349 20.282 10.054 29.319 16.523l12.77-16.133zm-17.844 22.669c-8.275-5.812-17.794-11.1-27.206-14.966-33.36-13.355-69.431-13.342-102.609.616s-58.901 39.942-72.405 73.013c-27.973 68.504 4.834 147.142 73.077 175.167 33.36 13.356 69.431 13.343 102.608-.615 33.178-13.958 58.902-39.942 72.406-73.013 4.34-10.63 7.331-22.159 8.904-33.581L158.91 173.579l88.494-111.573zM145.032 79.738c4.237-10.378 16.054-15.349 26.392-11.104 10.339 4.246 15.285 16.101 11.047 26.479-4.238 10.378-16.054 15.349-26.393 11.104-10.339-4.246-15.284-16.101-11.046-26.479zm70.014-9.988c4.118 1.691 6.028 6.268 4.34 10.402-1.273 3.959-6.25 6.053-10.368 4.361-4.118-1.691-6.028-6.268-4.34-10.401 1.688-4.134 6.25-6.053 10.368-4.362zm-4.167 11.046c1.765.725 4.254-.322 4.977-2.094.724-1.771-.318-4.268-2.083-4.993-1.765-.724-4.253.323-4.976 2.094-1.139 1.946-.097 4.443 2.082 4.993zm-83.111 82.407c-4.118-1.691-6.027-6.267-4.339-10.401 1.687-4.134 6.25-6.053 10.367-4.362 4.119 1.691 6.028 6.268 4.34 10.402-1.862 3.718-6.423 5.637-10.368 4.361zm4.167-11.045c-1.765-.725-4.253.321-4.977 2.093-.723 1.772.318 4.268 2.083 4.993 1.765.725 4.254-.322 4.977-2.094.724-1.771-.318-4.268-2.083-4.992zm-2.154 90.936c-4.238 10.378-16.055 15.349-26.393 11.103-10.339-4.245-15.284-16.1-11.047-26.478 4.238-10.379 16.054-15.35 26.393-11.104 10.339 4.246 15.284 16.101 11.047 26.479zM101.895 95.343c-4.118-1.691-6.027-6.268-4.339-10.402 1.688-4.134 6.25-6.053 10.368-4.362 4.118 1.692 6.027 6.269 4.339 10.402-1.446 3.544-6.423 5.637-10.368 4.362zm4.582-11.22c-1.765-.725-4.253.322-4.977 2.093-1.138 1.947-.096 4.443 2.083 4.993 1.765.725 4.254-.322 4.977-2.093.723-1.772-.318-4.269-2.083-4.993zM55.26 171.698c-2.334-10.267 1.004-20.964 8.325-27.957 9.48 2.859 17.619 10.684 20.127 21.368 2.333 10.267-1.004 20.964-8.325 27.957-9.895-2.685-17.62-10.684-20.127-21.368zm104.011 98.571c4.118 1.691 6.028 6.268 4.34 10.402-1.688 4.133-6.25 6.053-10.369 4.361-4.117-1.691-6.027-6.268-4.339-10.402 1.688-4.133 6.25-6.052 10.368-4.361zm-4.755 10.804c1.765.725 4.253-.322 4.976-2.093.724-1.772-.317-4.269-2.082-4.993-1.765-.725-4.254.321-4.977 2.093-.55 2.188.318 4.269 2.083 4.993zm6.31-54.988c5.324-1.262 10.686-.094 14.843 4.026 4.157 4.121 5.169 10.053 3.828 15.019-5.324 1.262-10.686.094-14.843-4.026-4.156-4.121-5.169-10.053-3.828-15.019zm31.597-29.433c3.733-1.571 8.266-.054 10.002 4.107 1.562 3.744.047 8.294-4.1 10.039-3.732 1.57-8.265.054-10.001-4.107-1.562-3.745-.048-8.295 4.099-10.039zm-.781 8.643a4.022 4.022 0 0 0 5.295 2.174 4.05 4.05 0 0 0 2.17-5.314 4.023 4.023 0 0 0-5.295-2.175c-2.074.872-2.624 3.06-2.17 5.315zm47.702 16.121c10.338 4.246 15.284 16.101 11.047 26.479-4.239 10.378-16.055 15.349-26.393 11.103-10.339-4.246-15.285-16.101-11.046-26.478 4.237-10.378 16.053-15.35 26.392-11.104z" opacity=".149"/>
</svg>
